<mxfile host="app.diagrams.net" modified="2023-12-27T06:20:16.150Z" agent="Mozilla/5.0 (Windows NT 10.0; Win64; x64) AppleWebKit/537.36 (KHTML, like Gecko) Chrome/120.0.0.0 Safari/537.36" etag="3WsfRcIgBK2YLLZCI4qV" version="22.1.11" type="github">
  <diagram name="Page-1" id="sP6Eu-EO_CDs24PMQzUU">
    <mxGraphModel dx="2109" dy="655" grid="1" gridSize="10" guides="1" tooltips="1" connect="1" arrows="1" fold="1" page="1" pageScale="1" pageWidth="850" pageHeight="1100" math="0" shadow="0">
      <root>
        <mxCell id="0" />
        <mxCell id="1" parent="0" />
        <mxCell id="2gfr_sDlqD8oSRrLIhjS-3" value="Educator&amp;nbsp;" style="rounded=1;whiteSpace=wrap;html=1;" parent="1" vertex="1">
          <mxGeometry x="236.25" y="452.13" width="110" height="30" as="geometry" />
        </mxCell>
        <mxCell id="2gfr_sDlqD8oSRrLIhjS-7" value="grades" style="rounded=1;whiteSpace=wrap;html=1;" parent="1" vertex="1">
          <mxGeometry x="-30" y="248" width="110" height="30" as="geometry" />
        </mxCell>
        <mxCell id="2gfr_sDlqD8oSRrLIhjS-8" value="Quiz&amp;nbsp;" style="rounded=1;whiteSpace=wrap;html=1;" parent="1" vertex="1">
          <mxGeometry x="300" y="250" width="110" height="30" as="geometry" />
        </mxCell>
        <mxCell id="2gfr_sDlqD8oSRrLIhjS-9" value="Quiz Details" style="rounded=1;whiteSpace=wrap;html=1;" parent="1" vertex="1">
          <mxGeometry x="635" y="294.13" width="110" height="30" as="geometry" />
        </mxCell>
        <mxCell id="2gfr_sDlqD8oSRrLIhjS-11" value="has" style="rhombus;whiteSpace=wrap;html=1;" parent="1" vertex="1">
          <mxGeometry x="490" y="236.25" width="60" height="57.5" as="geometry" />
        </mxCell>
        <mxCell id="2gfr_sDlqD8oSRrLIhjS-12" value="" style="endArrow=baseDash;html=1;rounded=0;exitX=0;exitY=0.5;exitDx=0;exitDy=0;endFill=0;entryX=1;entryY=0.5;entryDx=0;entryDy=0;" parent="1" source="2gfr_sDlqD8oSRrLIhjS-11" target="2gfr_sDlqD8oSRrLIhjS-8" edge="1">
          <mxGeometry width="50" height="50" relative="1" as="geometry">
            <mxPoint x="400" y="360" as="sourcePoint" />
            <mxPoint x="440" y="330" as="targetPoint" />
          </mxGeometry>
        </mxCell>
        <mxCell id="2gfr_sDlqD8oSRrLIhjS-14" value="1" style="text;html=1;align=center;verticalAlign=middle;resizable=0;points=[];autosize=1;strokeColor=none;fillColor=none;" parent="1" vertex="1">
          <mxGeometry x="415" y="238" width="30" height="30" as="geometry" />
        </mxCell>
        <mxCell id="2gfr_sDlqD8oSRrLIhjS-15" value="M" style="text;html=1;align=center;verticalAlign=middle;resizable=0;points=[];autosize=1;strokeColor=none;fillColor=none;" parent="1" vertex="1">
          <mxGeometry x="605" y="294.13" width="30" height="30" as="geometry" />
        </mxCell>
        <mxCell id="2gfr_sDlqD8oSRrLIhjS-16" value="has" style="rhombus;whiteSpace=wrap;html=1;" parent="1" vertex="1">
          <mxGeometry x="140" y="238" width="60" height="57.5" as="geometry" />
        </mxCell>
        <mxCell id="2gfr_sDlqD8oSRrLIhjS-17" value="" style="endArrow=none;html=1;rounded=0;exitX=1;exitY=0.75;exitDx=0;exitDy=0;entryX=0;entryY=0.5;entryDx=0;entryDy=0;" parent="1" source="2gfr_sDlqD8oSRrLIhjS-7" target="2gfr_sDlqD8oSRrLIhjS-16" edge="1">
          <mxGeometry width="50" height="50" relative="1" as="geometry">
            <mxPoint x="400" y="360" as="sourcePoint" />
            <mxPoint x="450" y="310" as="targetPoint" />
          </mxGeometry>
        </mxCell>
        <mxCell id="2gfr_sDlqD8oSRrLIhjS-18" value="" style="endArrow=none;html=1;rounded=0;exitX=1;exitY=0.5;exitDx=0;exitDy=0;entryX=0;entryY=0.5;entryDx=0;entryDy=0;" parent="1" source="2gfr_sDlqD8oSRrLIhjS-16" target="2gfr_sDlqD8oSRrLIhjS-8" edge="1">
          <mxGeometry width="50" height="50" relative="1" as="geometry">
            <mxPoint x="400" y="360" as="sourcePoint" />
            <mxPoint x="450" y="310" as="targetPoint" />
          </mxGeometry>
        </mxCell>
        <mxCell id="2gfr_sDlqD8oSRrLIhjS-20" value="has" style="rhombus;whiteSpace=wrap;html=1;" parent="1" vertex="1">
          <mxGeometry x="-5" y="402.5" width="60" height="57.5" as="geometry" />
        </mxCell>
        <mxCell id="2gfr_sDlqD8oSRrLIhjS-21" value="" style="endArrow=none;html=1;rounded=0;exitX=0.5;exitY=0;exitDx=0;exitDy=0;entryX=0.5;entryY=1;entryDx=0;entryDy=0;" parent="1" source="2gfr_sDlqD8oSRrLIhjS-20" target="2gfr_sDlqD8oSRrLIhjS-7" edge="1">
          <mxGeometry width="50" height="50" relative="1" as="geometry">
            <mxPoint x="400" y="360" as="sourcePoint" />
            <mxPoint x="450" y="310" as="targetPoint" />
          </mxGeometry>
        </mxCell>
        <mxCell id="2gfr_sDlqD8oSRrLIhjS-22" value="" style="endArrow=none;html=1;rounded=0;exitX=0.5;exitY=0;exitDx=0;exitDy=0;entryX=0;entryY=0;entryDx=0;entryDy=0;" parent="1" source="2gfr_sDlqD8oSRrLIhjS-3" target="2gfr_sDlqD8oSRrLIhjS-24" edge="1">
          <mxGeometry width="50" height="50" relative="1" as="geometry">
            <mxPoint x="368.75" y="514.5" as="sourcePoint" />
            <mxPoint x="297.5" y="514.5" as="targetPoint" />
          </mxGeometry>
        </mxCell>
        <mxCell id="2gfr_sDlqD8oSRrLIhjS-24" value="Put" style="rhombus;whiteSpace=wrap;html=1;direction=north;" parent="1" vertex="1">
          <mxGeometry x="507.5" y="352" width="57.5" height="60" as="geometry" />
        </mxCell>
        <mxCell id="2gfr_sDlqD8oSRrLIhjS-25" value="" style="endArrow=none;html=1;rounded=0;exitX=1;exitY=0;exitDx=0;exitDy=0;entryX=1;entryY=1;entryDx=0;entryDy=0;" parent="1" source="2gfr_sDlqD8oSRrLIhjS-24" target="2gfr_sDlqD8oSRrLIhjS-8" edge="1">
          <mxGeometry width="50" height="50" relative="1" as="geometry">
            <mxPoint x="400" y="360" as="sourcePoint" />
            <mxPoint x="450" y="310" as="targetPoint" />
          </mxGeometry>
        </mxCell>
        <mxCell id="2gfr_sDlqD8oSRrLIhjS-26" value="" style="endArrow=none;html=1;rounded=0;exitX=0;exitY=0.5;exitDx=0;exitDy=0;entryX=1;entryY=0.5;entryDx=0;entryDy=0;" parent="1" source="2gfr_sDlqD8oSRrLIhjS-9" target="2gfr_sDlqD8oSRrLIhjS-11" edge="1">
          <mxGeometry width="50" height="50" relative="1" as="geometry">
            <mxPoint x="676.25" y="304.25" as="sourcePoint" />
            <mxPoint x="560" y="334.625" as="targetPoint" />
          </mxGeometry>
        </mxCell>
        <mxCell id="2gfr_sDlqD8oSRrLIhjS-27" value="1" style="text;html=1;align=center;verticalAlign=middle;resizable=0;points=[];autosize=1;strokeColor=none;fillColor=none;" parent="1" vertex="1">
          <mxGeometry x="276.25" y="422.13" width="30" height="30" as="geometry" />
        </mxCell>
        <mxCell id="2gfr_sDlqD8oSRrLIhjS-28" value="M" style="text;html=1;align=center;verticalAlign=middle;resizable=0;points=[];autosize=1;strokeColor=none;fillColor=none;" parent="1" vertex="1">
          <mxGeometry x="385" y="278" width="30" height="30" as="geometry" />
        </mxCell>
        <mxCell id="2gfr_sDlqD8oSRrLIhjS-29" value="1" style="text;html=1;align=center;verticalAlign=middle;resizable=0;points=[];autosize=1;strokeColor=none;fillColor=none;" parent="1" vertex="1">
          <mxGeometry x="270" y="238" width="30" height="30" as="geometry" />
        </mxCell>
        <mxCell id="2gfr_sDlqD8oSRrLIhjS-33" value="M" style="text;html=1;align=center;verticalAlign=middle;resizable=0;points=[];autosize=1;strokeColor=none;fillColor=none;" parent="1" vertex="1">
          <mxGeometry x="50" y="281.75" width="30" height="30" as="geometry" />
        </mxCell>
        <mxCell id="2gfr_sDlqD8oSRrLIhjS-34" value="id" style="ellipse;whiteSpace=wrap;html=1;" parent="1" vertex="1">
          <mxGeometry x="580" y="214.13" width="100" height="40" as="geometry" />
        </mxCell>
        <mxCell id="2gfr_sDlqD8oSRrLIhjS-35" value="answer" style="ellipse;whiteSpace=wrap;html=1;" parent="1" vertex="1">
          <mxGeometry x="710" y="224.13" width="100" height="40" as="geometry" />
        </mxCell>
        <mxCell id="2gfr_sDlqD8oSRrLIhjS-36" value="wrong_answer1" style="ellipse;whiteSpace=wrap;html=1;" parent="1" vertex="1">
          <mxGeometry x="770" y="284.13" width="100" height="40" as="geometry" />
        </mxCell>
        <mxCell id="2gfr_sDlqD8oSRrLIhjS-37" value="wrong_answer2" style="ellipse;whiteSpace=wrap;html=1;" parent="1" vertex="1">
          <mxGeometry x="635" y="352.13" width="100" height="40" as="geometry" />
        </mxCell>
        <mxCell id="2gfr_sDlqD8oSRrLIhjS-39" value="wrong_answer3" style="ellipse;whiteSpace=wrap;html=1;" parent="1" vertex="1">
          <mxGeometry x="770" y="344.13" width="100" height="40" as="geometry" />
        </mxCell>
        <mxCell id="2gfr_sDlqD8oSRrLIhjS-41" value="" style="endArrow=none;html=1;rounded=0;entryX=0;entryY=0;entryDx=0;entryDy=0;exitX=0.5;exitY=1;exitDx=0;exitDy=0;" parent="1" source="2gfr_sDlqD8oSRrLIhjS-34" target="2gfr_sDlqD8oSRrLIhjS-9" edge="1">
          <mxGeometry width="50" height="50" relative="1" as="geometry">
            <mxPoint x="420" y="394.13" as="sourcePoint" />
            <mxPoint x="470" y="344.13" as="targetPoint" />
          </mxGeometry>
        </mxCell>
        <mxCell id="2gfr_sDlqD8oSRrLIhjS-42" value="" style="endArrow=none;html=1;rounded=0;exitX=0.5;exitY=0;exitDx=0;exitDy=0;entryX=0.5;entryY=1;entryDx=0;entryDy=0;" parent="1" source="2gfr_sDlqD8oSRrLIhjS-9" target="2gfr_sDlqD8oSRrLIhjS-35" edge="1">
          <mxGeometry width="50" height="50" relative="1" as="geometry">
            <mxPoint x="420" y="394.13" as="sourcePoint" />
            <mxPoint x="470" y="344.13" as="targetPoint" />
          </mxGeometry>
        </mxCell>
        <mxCell id="2gfr_sDlqD8oSRrLIhjS-43" value="" style="endArrow=none;html=1;rounded=0;exitX=0;exitY=0.5;exitDx=0;exitDy=0;entryX=1;entryY=0.5;entryDx=0;entryDy=0;" parent="1" source="2gfr_sDlqD8oSRrLIhjS-36" target="2gfr_sDlqD8oSRrLIhjS-9" edge="1">
          <mxGeometry width="50" height="50" relative="1" as="geometry">
            <mxPoint x="420" y="394.13" as="sourcePoint" />
            <mxPoint x="470" y="344.13" as="targetPoint" />
          </mxGeometry>
        </mxCell>
        <mxCell id="2gfr_sDlqD8oSRrLIhjS-44" value="" style="endArrow=none;html=1;rounded=0;exitX=0.5;exitY=0;exitDx=0;exitDy=0;entryX=0.5;entryY=1;entryDx=0;entryDy=0;" parent="1" source="2gfr_sDlqD8oSRrLIhjS-37" target="2gfr_sDlqD8oSRrLIhjS-9" edge="1">
          <mxGeometry width="50" height="50" relative="1" as="geometry">
            <mxPoint x="465" y="329.13" as="sourcePoint" />
            <mxPoint x="515" y="279.13" as="targetPoint" />
          </mxGeometry>
        </mxCell>
        <mxCell id="2gfr_sDlqD8oSRrLIhjS-45" value="" style="endArrow=none;html=1;rounded=0;exitX=0;exitY=0;exitDx=0;exitDy=0;entryX=1;entryY=1;entryDx=0;entryDy=0;" parent="1" source="2gfr_sDlqD8oSRrLIhjS-39" target="2gfr_sDlqD8oSRrLIhjS-9" edge="1">
          <mxGeometry width="50" height="50" relative="1" as="geometry">
            <mxPoint x="420" y="394.13" as="sourcePoint" />
            <mxPoint x="470" y="344.13" as="targetPoint" />
          </mxGeometry>
        </mxCell>
        <mxCell id="2gfr_sDlqD8oSRrLIhjS-46" value="id" style="ellipse;whiteSpace=wrap;html=1;" parent="1" vertex="1">
          <mxGeometry x="85" y="482.13" width="100" height="40" as="geometry" />
        </mxCell>
        <mxCell id="2gfr_sDlqD8oSRrLIhjS-47" value="name" style="ellipse;whiteSpace=wrap;html=1;" parent="1" vertex="1">
          <mxGeometry x="400" y="442.13" width="100" height="40" as="geometry" />
        </mxCell>
        <mxCell id="2gfr_sDlqD8oSRrLIhjS-48" value="email" style="ellipse;whiteSpace=wrap;html=1;" parent="1" vertex="1">
          <mxGeometry x="365" y="502.13" width="100" height="40" as="geometry" />
        </mxCell>
        <mxCell id="2gfr_sDlqD8oSRrLIhjS-49" value="password" style="ellipse;whiteSpace=wrap;html=1;" parent="1" vertex="1">
          <mxGeometry x="255" y="522.13" width="100" height="40" as="geometry" />
        </mxCell>
        <mxCell id="2gfr_sDlqD8oSRrLIhjS-51" value="" style="endArrow=none;html=1;rounded=0;exitX=0.5;exitY=0;exitDx=0;exitDy=0;entryX=0.5;entryY=1;entryDx=0;entryDy=0;" parent="1" source="2gfr_sDlqD8oSRrLIhjS-49" target="2gfr_sDlqD8oSRrLIhjS-3" edge="1">
          <mxGeometry width="50" height="50" relative="1" as="geometry">
            <mxPoint x="16.25" y="358.38" as="sourcePoint" />
            <mxPoint x="66.25" y="308.38" as="targetPoint" />
          </mxGeometry>
        </mxCell>
        <mxCell id="2gfr_sDlqD8oSRrLIhjS-52" value="" style="endArrow=none;html=1;rounded=0;exitX=0;exitY=0.5;exitDx=0;exitDy=0;entryX=1;entryY=0.5;entryDx=0;entryDy=0;" parent="1" source="2gfr_sDlqD8oSRrLIhjS-3" target="2gfr_sDlqD8oSRrLIhjS-46" edge="1">
          <mxGeometry width="50" height="50" relative="1" as="geometry">
            <mxPoint x="16.25" y="358.38" as="sourcePoint" />
            <mxPoint x="66.25" y="308.38" as="targetPoint" />
          </mxGeometry>
        </mxCell>
        <mxCell id="2gfr_sDlqD8oSRrLIhjS-53" value="" style="endArrow=none;html=1;rounded=0;exitX=0.5;exitY=0;exitDx=0;exitDy=0;entryX=0.75;entryY=1;entryDx=0;entryDy=0;" parent="1" source="2gfr_sDlqD8oSRrLIhjS-48" target="2gfr_sDlqD8oSRrLIhjS-3" edge="1">
          <mxGeometry width="50" height="50" relative="1" as="geometry">
            <mxPoint x="16.25" y="358.38" as="sourcePoint" />
            <mxPoint x="66.25" y="308.38" as="targetPoint" />
          </mxGeometry>
        </mxCell>
        <mxCell id="2gfr_sDlqD8oSRrLIhjS-54" value="" style="endArrow=none;html=1;rounded=0;exitX=0;exitY=0.5;exitDx=0;exitDy=0;entryX=1;entryY=0.5;entryDx=0;entryDy=0;" parent="1" source="2gfr_sDlqD8oSRrLIhjS-47" target="2gfr_sDlqD8oSRrLIhjS-3" edge="1">
          <mxGeometry width="50" height="50" relative="1" as="geometry">
            <mxPoint x="16.25" y="358.38" as="sourcePoint" />
            <mxPoint x="66.25" y="308.38" as="targetPoint" />
          </mxGeometry>
        </mxCell>
        <mxCell id="2gfr_sDlqD8oSRrLIhjS-55" value="quiz_time" style="ellipse;whiteSpace=wrap;html=1;" parent="1" vertex="1">
          <mxGeometry x="260" y="327.5" width="85" height="31.25" as="geometry" />
        </mxCell>
        <mxCell id="2gfr_sDlqD8oSRrLIhjS-56" value="name" style="ellipse;whiteSpace=wrap;html=1;" parent="1" vertex="1">
          <mxGeometry x="430" y="170" width="77.5" height="35" as="geometry" />
        </mxCell>
        <mxCell id="2gfr_sDlqD8oSRrLIhjS-57" value="code" style="ellipse;whiteSpace=wrap;html=1;" parent="1" vertex="1">
          <mxGeometry x="345" y="172.5" width="80" height="30" as="geometry" />
        </mxCell>
        <mxCell id="2gfr_sDlqD8oSRrLIhjS-31" value="M" style="text;html=1;align=center;verticalAlign=middle;resizable=0;points=[];autosize=1;strokeColor=none;fillColor=none;" parent="1" vertex="1">
          <mxGeometry x="85" y="238" width="30" height="30" as="geometry" />
        </mxCell>
        <mxCell id="2gfr_sDlqD8oSRrLIhjS-59" value="quiz_date" style="ellipse;whiteSpace=wrap;html=1;" parent="1" vertex="1">
          <mxGeometry x="355" y="318.75" width="90" height="27.5" as="geometry" />
        </mxCell>
        <mxCell id="2gfr_sDlqD8oSRrLIhjS-60" value="created_by" style="ellipse;whiteSpace=wrap;html=1;" parent="1" vertex="1">
          <mxGeometry x="245" y="175" width="80" height="30" as="geometry" />
        </mxCell>
        <mxCell id="2gfr_sDlqD8oSRrLIhjS-61" value="updated_by" style="ellipse;whiteSpace=wrap;html=1;" parent="1" vertex="1">
          <mxGeometry x="200" y="287.5" width="85" height="31.25" as="geometry" />
        </mxCell>
        <mxCell id="2gfr_sDlqD8oSRrLIhjS-63" value="Quiz_grade" style="ellipse;whiteSpace=wrap;html=1;" parent="1" vertex="1">
          <mxGeometry x="-90" y="172.5" width="80" height="30" as="geometry" />
        </mxCell>
        <mxCell id="2gfr_sDlqD8oSRrLIhjS-64" value="user_id" style="ellipse;whiteSpace=wrap;html=1;" parent="1" vertex="1">
          <mxGeometry x="-150" y="230" width="80" height="30" as="geometry" />
        </mxCell>
        <mxCell id="2gfr_sDlqD8oSRrLIhjS-65" value="student_grade" style="ellipse;whiteSpace=wrap;html=1;" parent="1" vertex="1">
          <mxGeometry x="40" y="175" width="80" height="30" as="geometry" />
        </mxCell>
        <mxCell id="2gfr_sDlqD8oSRrLIhjS-66" value="quiz_id" style="ellipse;whiteSpace=wrap;html=1;" parent="1" vertex="1">
          <mxGeometry x="-120" y="303.75" width="80" height="30" as="geometry" />
        </mxCell>
        <mxCell id="2gfr_sDlqD8oSRrLIhjS-67" value="" style="endArrow=none;html=1;rounded=0;exitX=1;exitY=0;exitDx=0;exitDy=0;entryX=0.5;entryY=1;entryDx=0;entryDy=0;" parent="1" source="2gfr_sDlqD8oSRrLIhjS-8" target="2gfr_sDlqD8oSRrLIhjS-56" edge="1">
          <mxGeometry width="50" height="50" relative="1" as="geometry">
            <mxPoint x="400" y="270" as="sourcePoint" />
            <mxPoint x="450" y="220" as="targetPoint" />
          </mxGeometry>
        </mxCell>
        <mxCell id="2gfr_sDlqD8oSRrLIhjS-75" value="" style="endArrow=none;html=1;rounded=0;exitX=0.5;exitY=0;exitDx=0;exitDy=0;entryX=0.5;entryY=1;entryDx=0;entryDy=0;" parent="1" source="2gfr_sDlqD8oSRrLIhjS-8" target="2gfr_sDlqD8oSRrLIhjS-57" edge="1">
          <mxGeometry width="50" height="50" relative="1" as="geometry">
            <mxPoint x="400" y="270" as="sourcePoint" />
            <mxPoint x="450" y="220" as="targetPoint" />
          </mxGeometry>
        </mxCell>
        <mxCell id="2gfr_sDlqD8oSRrLIhjS-76" value="" style="endArrow=none;html=1;rounded=0;exitX=0.25;exitY=0;exitDx=0;exitDy=0;entryX=0.5;entryY=1;entryDx=0;entryDy=0;" parent="1" source="2gfr_sDlqD8oSRrLIhjS-8" target="2gfr_sDlqD8oSRrLIhjS-60" edge="1">
          <mxGeometry width="50" height="50" relative="1" as="geometry">
            <mxPoint x="365" y="260" as="sourcePoint" />
            <mxPoint x="395" y="213" as="targetPoint" />
          </mxGeometry>
        </mxCell>
        <mxCell id="2gfr_sDlqD8oSRrLIhjS-77" value="" style="endArrow=none;html=1;rounded=0;exitX=0.75;exitY=1;exitDx=0;exitDy=0;entryX=0.5;entryY=0;entryDx=0;entryDy=0;" parent="1" source="2gfr_sDlqD8oSRrLIhjS-8" target="2gfr_sDlqD8oSRrLIhjS-59" edge="1">
          <mxGeometry width="50" height="50" relative="1" as="geometry">
            <mxPoint x="375" y="270" as="sourcePoint" />
            <mxPoint x="405" y="223" as="targetPoint" />
          </mxGeometry>
        </mxCell>
        <mxCell id="2gfr_sDlqD8oSRrLIhjS-78" value="" style="endArrow=none;html=1;rounded=0;exitX=0.25;exitY=1;exitDx=0;exitDy=0;entryX=0.5;entryY=0;entryDx=0;entryDy=0;" parent="1" source="2gfr_sDlqD8oSRrLIhjS-8" target="2gfr_sDlqD8oSRrLIhjS-55" edge="1">
          <mxGeometry width="50" height="50" relative="1" as="geometry">
            <mxPoint x="393" y="290" as="sourcePoint" />
            <mxPoint x="410" y="329" as="targetPoint" />
          </mxGeometry>
        </mxCell>
        <mxCell id="2gfr_sDlqD8oSRrLIhjS-79" value="" style="endArrow=none;html=1;rounded=0;exitX=0;exitY=1;exitDx=0;exitDy=0;entryX=1;entryY=0;entryDx=0;entryDy=0;" parent="1" source="2gfr_sDlqD8oSRrLIhjS-8" target="2gfr_sDlqD8oSRrLIhjS-61" edge="1">
          <mxGeometry width="50" height="50" relative="1" as="geometry">
            <mxPoint x="403" y="300" as="sourcePoint" />
            <mxPoint x="420" y="339" as="targetPoint" />
          </mxGeometry>
        </mxCell>
        <mxCell id="2gfr_sDlqD8oSRrLIhjS-80" value="" style="endArrow=none;html=1;rounded=0;exitX=0.75;exitY=0;exitDx=0;exitDy=0;entryX=0.5;entryY=1;entryDx=0;entryDy=0;" parent="1" source="2gfr_sDlqD8oSRrLIhjS-7" target="2gfr_sDlqD8oSRrLIhjS-65" edge="1">
          <mxGeometry width="50" height="50" relative="1" as="geometry">
            <mxPoint x="413" y="310" as="sourcePoint" />
            <mxPoint x="430" y="349" as="targetPoint" />
          </mxGeometry>
        </mxCell>
        <mxCell id="2gfr_sDlqD8oSRrLIhjS-81" value="" style="endArrow=none;html=1;rounded=0;exitX=0.613;exitY=1.014;exitDx=0;exitDy=0;entryX=0.25;entryY=0;entryDx=0;entryDy=0;exitPerimeter=0;" parent="1" source="2gfr_sDlqD8oSRrLIhjS-63" target="2gfr_sDlqD8oSRrLIhjS-7" edge="1">
          <mxGeometry width="50" height="50" relative="1" as="geometry">
            <mxPoint x="63" y="258" as="sourcePoint" />
            <mxPoint x="90" y="215" as="targetPoint" />
          </mxGeometry>
        </mxCell>
        <mxCell id="2gfr_sDlqD8oSRrLIhjS-82" value="" style="endArrow=none;html=1;rounded=0;exitX=0;exitY=0.5;exitDx=0;exitDy=0;entryX=1;entryY=0.5;entryDx=0;entryDy=0;" parent="1" source="2gfr_sDlqD8oSRrLIhjS-7" target="2gfr_sDlqD8oSRrLIhjS-64" edge="1">
          <mxGeometry width="50" height="50" relative="1" as="geometry">
            <mxPoint x="73" y="268" as="sourcePoint" />
            <mxPoint x="100" y="225" as="targetPoint" />
          </mxGeometry>
        </mxCell>
        <mxCell id="2gfr_sDlqD8oSRrLIhjS-83" value="" style="endArrow=none;html=1;rounded=0;exitX=0.25;exitY=1;exitDx=0;exitDy=0;entryX=1;entryY=0;entryDx=0;entryDy=0;" parent="1" source="2gfr_sDlqD8oSRrLIhjS-7" target="2gfr_sDlqD8oSRrLIhjS-66" edge="1">
          <mxGeometry width="50" height="50" relative="1" as="geometry">
            <mxPoint x="83" y="278" as="sourcePoint" />
            <mxPoint x="110" y="235" as="targetPoint" />
          </mxGeometry>
        </mxCell>
        <mxCell id="hzS3NIPd-xlxBhPHZgBu-15" value="if eduo is true" style="text;html=1;align=center;verticalAlign=middle;resizable=0;points=[];autosize=1;strokeColor=none;fillColor=none;rotation=0;" vertex="1" parent="1">
          <mxGeometry x="335" y="384.13" width="100" height="30" as="geometry" />
        </mxCell>
        <mxCell id="hzS3NIPd-xlxBhPHZgBu-17" value="isEduo" style="ellipse;whiteSpace=wrap;html=1;" vertex="1" parent="1">
          <mxGeometry x="136.25" y="532.13" width="100" height="40" as="geometry" />
        </mxCell>
        <mxCell id="hzS3NIPd-xlxBhPHZgBu-18" value="" style="endArrow=none;html=1;rounded=0;exitX=0.778;exitY=-0.041;exitDx=0;exitDy=0;exitPerimeter=0;entryX=0.25;entryY=1;entryDx=0;entryDy=0;" edge="1" parent="1" source="hzS3NIPd-xlxBhPHZgBu-17" target="2gfr_sDlqD8oSRrLIhjS-3">
          <mxGeometry width="50" height="50" relative="1" as="geometry">
            <mxPoint x="265" y="412.13" as="sourcePoint" />
            <mxPoint x="315" y="362.13" as="targetPoint" />
          </mxGeometry>
        </mxCell>
        <mxCell id="hzS3NIPd-xlxBhPHZgBu-19" value="" style="endArrow=none;html=1;rounded=0;exitX=0;exitY=0;exitDx=0;exitDy=0;entryX=1;entryY=1;entryDx=0;entryDy=0;" edge="1" parent="1" source="2gfr_sDlqD8oSRrLIhjS-3" target="2gfr_sDlqD8oSRrLIhjS-20">
          <mxGeometry width="50" height="50" relative="1" as="geometry">
            <mxPoint x="280" y="440" as="sourcePoint" />
            <mxPoint x="330" y="390" as="targetPoint" />
          </mxGeometry>
        </mxCell>
      </root>
    </mxGraphModel>
  </diagram>
</mxfile>
